<svg width="12" height="14" viewBox="0 0 12 14" fill="none" xmlns="http://www.w3.org/2000/svg">
<path fill-rule="evenodd" clip-rule="evenodd" d="M1.91667 6.91675C1.54848 6.91675 1.25 7.21522 1.25 7.58341V11.6667C1.25 12.0349 1.54848 12.3334 1.91667 12.3334H10.0833C10.4515 12.3334 10.75 12.0349 10.75 11.6667V7.58341C10.75 7.21522 10.4515 6.91675 10.0833 6.91675H1.91667ZM0.25 7.58341C0.25 6.66294 0.996192 5.91675 1.91667 5.91675H10.0833C11.0038 5.91675 11.75 6.66294 11.75 7.58341V11.6667C11.75 12.5872 11.0038 13.3334 10.0833 13.3334H1.91667C0.996192 13.3334 0.25 12.5872 0.25 11.6667V7.58341Z" fill="#797979"/>
<path fill-rule="evenodd" clip-rule="evenodd" d="M6 1.66675C5.35906 1.66675 4.74437 1.92136 4.29116 2.37457C3.83795 2.82779 3.58333 3.44247 3.58333 4.08341V6.41675C3.58333 6.69289 3.35948 6.91675 3.08333 6.91675C2.80719 6.91675 2.58333 6.69289 2.58333 6.41675V4.08341C2.58333 3.17726 2.9433 2.30822 3.58405 1.66747C4.2248 1.02672 5.09384 0.666748 6 0.666748C6.90616 0.666748 7.7752 1.02672 8.41595 1.66747C9.0567 2.30822 9.41667 3.17726 9.41667 4.08341V6.41675C9.41667 6.69289 9.19281 6.91675 8.91667 6.91675C8.64053 6.91675 8.41667 6.69289 8.41667 6.41675V4.08341C8.41667 3.44247 8.16206 2.82779 7.70884 2.37457C7.25563 1.92136 6.64094 1.66675 6 1.66675Z" fill="#797979"/>
<path d="M0.5 7.50015L1 6.50015L1.5 6.50006C4.16667 6.33339 9.6 6.50015 10 6.50015C10.4 6.50015 10.5 6.83349 10.5 7.00015L11 7.50015V12.5002H7L2.5 13L1 12.5L0.5 7.50015Z" fill="#797979"/>
</svg>
