<svg width="380" height="700" viewBox="0 0 380 700" fill="none" xmlns="http://www.w3.org/2000/svg">
<path d="M330.8 56.2566C339.2 69.3982 338 84.9292 335.6 99.2655C338 96.8761 340.4 95.6814 341.6 93.292C344 84.9292 346.4 76.5664 344 68.2035C342.8 58.646 336.8 51.4779 332 43.115L303.2 28.7788C291.2 29.9735 280.4 32.3628 268.4 33.5575C258.8 41.9204 249.2 50.2832 242 59.8407C222.8 86.1239 228.8 119.575 249.2 144.664C243.2 130.327 236 115.991 230 101.655C232.4 87.3186 234.8 74.177 237.2 59.8407L266 31.1681L302 24C311.6 28.7788 322.4 32.3628 330.8 39.531C339.2 45.5044 345.2 53.8673 347.6 63.4248C350 71.7876 350 81.3451 347.6 89.708C344 104.044 335.6 114.796 317.6 119.575C299.6 124.354 282.8 113.602 274.4 98.0708C268.4 114.796 286.4 125.549 299.6 131.522C314 136.301 329.6 133.911 344 123.159C351.2 115.991 356 107.628 362 100.46C359.6 108.823 354.8 114.796 350 121.965H351.2C340.4 126.743 330.8 132.717 320 137.496C309.2 136.301 298.4 136.301 288.8 132.717C280.4 129.133 273.2 123.159 268.4 115.991C263.6 108.823 261.2 100.46 260 92.0973C260 78.9557 263.6 67.0089 278 57.4513C290 49.0885 304.4 52.6726 317.6 55.0619C306.8 38.3363 281.6 38.3363 264.8 50.2832C258.8 55.0619 254 62.2301 250.4 68.2035C240.8 84.9292 243.2 104.044 252.8 125.549C261.2 133.911 269.6 141.08 278 149.442C290 151.832 303.2 155.416 315.2 157.805C328.4 153.027 342.8 149.442 356 144.664C346.4 149.442 338 154.221 327.2 156.611C309.2 161.389 291.2 159 273.2 149.442C260 141.08 248 130.327 244.4 114.796C240.8 102.85 242 90.9026 242 78.9557C248 69.3982 252.8 59.8407 258.8 50.2832C268.4 45.5044 276.8 40.7257 286.4 38.3363C302 34.7522 317.6 39.531 330.8 56.2566ZM286.4 95.6814C286.4 94.4867 287.6 93.292 287.6 92.0973C294.8 96.8761 300.8 104.044 312.8 101.655C309.2 100.46 303.2 101.655 302 95.6814C302 93.292 305.6 92.0973 309.2 90.9026C315.2 88.5133 317.6 82.5398 315.2 72.9823C312.8 63.4248 304.4 59.8407 290 59.8407C297.2 59.8407 304.4 61.0354 309.2 68.2035C310.4 70.5929 312.8 74.177 308 75.3717C304.4 76.5664 299.6 74.177 294.8 75.3717C287.6 77.7611 285.2 84.9292 286.4 95.6814Z" fill="black"/>
<path d="M317.802 303.147C312.052 299.987 317.61 278.346 311.056 278.346C304.502 278.346 304.49 304.781 297.936 304.781C291.383 304.781 284.193 276.82 278.443 279.98C274.434 282.191 296.052 299.867 294.695 304.229C293.339 308.59 268.12 300.72 266.764 305.094C265.407 309.467 288.37 325.377 284.757 328.2C281.42 330.808 272.405 304.553 268.168 304.553C263.931 304.553 263.931 330.988 259.682 330.988C255.433 330.988 263.763 323.658 264.303 319.441C267.004 298.233 245.518 293.282 252.348 273.023C259.178 252.764 284.193 261.212 291.022 240.953C297.852 220.694 270.365 208.702 280.556 189.909C282.536 186.256 296.316 209.435 300.469 209.435C304.622 209.435 304.622 183 308.787 183C312.953 183 303.506 198.849 305.486 202.514C315.653 221.307 336.407 212.271 343.213 232.53C350.019 252.788 324.98 261.212 331.774 281.47C338.568 301.729 368.3 294.916 370.989 316.124C371.517 320.33 353.656 304.565 349.419 304.565C345.181 304.565 345.181 331 340.932 331C336.683 331 343.897 309.948 340.548 307.341C336.935 304.529 318.474 317.386 317.106 313.024C315.737 308.662 336.695 290.29 332.554 288.344C327.945 286.181 321.835 305.358 317.826 303.147H317.802ZM303.362 268.361C304.778 272.711 295.38 285.664 299.941 285.664C304.502 285.664 304.514 259.229 309.087 259.229C313.661 259.229 329.361 280.918 330.777 276.568C333.106 269.467 303.398 269.274 301.165 262.137C298.933 254.999 324.128 247.081 321.883 239.943C319.638 232.806 294.563 240.821 292.247 233.707C292.223 233.635 304.718 216.404 304.646 216.404C304.562 216.404 304.562 242.839 304.478 242.839C304.394 242.839 291.791 225.428 291.767 225.5C289.438 232.614 314.657 240.736 312.4 247.862C310.144 254.987 281.6 251.635 282.14 259.097C282.608 265.718 301.045 261.236 303.362 268.349V268.361Z" fill="black"/>
<path d="M314.109 512.71L304.964 471.736L295.831 512.71L260.341 500.152L290.55 536.976L264.398 497.909L230 516.981L292.854 466.062L273.411 388L305.084 420.254L336.769 388.012L317.218 466.038L380 517.017L345.602 497.909L319.474 537L336.421 486.214L314.097 512.722L314.109 512.71ZM312.057 467.718L304.988 496.325L297.931 467.682L332.844 446.559L284.501 438.486L305.036 409.879L325.559 438.522L276.615 457.426L312.069 467.718H312.057Z" fill="black"/>
<path d="M152.716 289.375C150.803 287.839 114.336 292.232 111.885 292.232C109.434 292.232 109.434 305.4 106.983 305.4C104.532 305.4 104.532 332.54 102.081 332.54C99.63 332.54 99.63 326.286 97.1789 326.286C94.7279 326.286 94.7278 350.821 92.2768 350.821C89.8257 350.821 89.8258 324.281 87.3747 324.281C84.9236 324.281 84.9236 353.114 82.4726 353.114C80.0215 353.114 98.3985 356.871 96.4855 358.407C94.3572 360.112 23.3601 320.488 22.5471 323.105C21.734 325.722 38.0067 330.823 37.1937 333.44C36.3806 336.057 78.4313 349.236 77.6183 351.853C76.8052 354.47 94.6561 360.064 93.8431 362.692C93.0301 365.321 62.5173 347.424 60.3532 349.116C58.3565 350.677 66.8934 403 64.3586 403C61.8238 403 61.8238 387.972 59.301 387.972C56.7782 387.972 56.7663 339.742 54.2315 339.742C51.6968 339.742 51.6967 322.241 49.162 322.241C46.6272 322.241 43.9729 364.001 42.5023 361.924C41.0317 359.848 42.6099 357.579 43.4229 355.154C44.236 352.729 60.401 358.203 61.2141 355.766C62.0271 353.33 52.3305 350.053 53.1435 347.628C53.9565 345.203 -0.815765 326.658 0.00922728 324.233C0.834219 321.809 103.827 356.679 104.64 354.242C105.453 351.805 85.7486 345.143 86.5616 342.719C87.3747 340.294 94.3692 342.659 95.1942 340.234C96.0191 337.809 103.121 340.21 103.946 337.785C104.771 335.36 77.2835 326.058 78.1085 323.621C78.9335 321.184 80.0813 321.58 80.8943 319.156C81.7073 316.731 25.9068 297.838 26.7198 295.401C27.5329 292.964 50.9555 300.899 51.7685 298.474C52.5815 296.049 58.7152 298.126 59.5282 295.689C60.3412 293.252 60.1978 293.216 61.0108 290.78C61.8238 288.343 57.3761 286.842 58.1891 284.418C59.0021 281.993 54.7696 280.553 55.5826 278.128C56.3956 275.703 93.2094 288.163 94.0224 285.738C94.8355 283.313 116.369 290.6 117.182 288.163C117.995 285.726 106.027 281.681 106.84 279.256C107.653 276.832 114.934 279.292 115.747 276.856C116.56 274.419 102.703 269.738 103.528 267.313C104.353 264.888 126.042 272.234 126.855 269.798C127.668 267.361 33.1763 235.384 33.9893 232.947C34.8023 230.51 42.3588 233.067 43.1719 230.63C43.9849 228.194 75.1074 230.318 77.1639 228.806C79.2204 227.293 87.3508 295.593 89.8377 295.593C92.3246 295.593 92.3246 220.295 94.7996 220.295C97.2746 220.295 97.2865 209.696 99.7735 209.696C102.26 209.696 102.26 209 104.747 209C107.234 209 79.3041 276.772 81.3128 278.236C83.3215 279.7 113.045 240.905 113.858 243.33C114.671 245.755 88.8573 254.457 89.6703 256.882C90.4833 259.307 89.7779 259.547 90.591 261.971C91.404 264.396 78.503 268.753 79.316 271.178C80.1291 273.603 120.769 259.907 121.582 262.331C122.395 264.756 63.9999 284.454 64.813 286.878C65.626 289.303 127.728 268.369 128.541 270.794C129.354 273.219 147.228 267.193 148.041 269.617C148.855 272.042 130.442 278.248 131.255 280.685C132.068 283.121 110.63 290.335 111.443 292.772C112.256 295.209 160.99 278.764 161.803 281.201C162.616 283.638 154.163 286.47 154.976 288.895C155.789 291.32 94.4648 312.002 95.2779 314.426C96.0909 316.851 131.267 304.992 132.08 307.416C132.893 309.841 95.9713 322.301 96.7844 324.725C97.5974 327.15 110.63 322.757 111.443 325.182C112.256 327.606 144.682 316.683 145.495 319.108C146.308 321.532 164.171 315.519 164.984 317.943C165.797 320.368 135.93 330.439 136.743 332.876C137.556 335.312 128.062 338.505 128.875 340.93C129.688 343.355 114.958 348.324 115.771 350.749C116.584 353.174 163.166 337.473 163.979 339.898C164.792 342.322 147.468 348.168 148.281 350.593C149.094 353.018 156.435 350.545 157.248 352.982C158.061 355.418 152.92 359.415 151.449 361.504C149.978 363.593 147.814 365.669 145.292 365.669C142.769 365.669 142.757 321.268 140.222 321.268C137.687 321.268 137.687 385.751 135.152 385.751C132.618 385.751 132.618 374.324 130.083 374.324C127.548 374.324 113.643 379.557 111.646 377.997C109.482 376.316 146.272 351.097 145.447 348.48C144.622 345.863 110.319 356.727 109.506 354.11C108.693 351.493 120.578 347.724 119.753 345.107C118.928 342.491 75.7889 315.351 77.2835 313.034C93.867 287.287 154.869 291.008 152.728 289.291L152.716 289.375ZM39.3458 352.597C41.0914 354.698 86.2867 357.867 89.0127 357.867C91.7388 357.867 91.7388 344.699 94.4768 344.699C97.2148 344.699 97.2148 317.559 99.9408 317.559C102.667 317.559 102.679 323.813 105.417 323.813C108.155 323.813 96.7604 307.152 98.518 305.052C100.12 303.143 119.944 310.045 119.203 307.668C118.461 305.292 91.0573 313.922 90.316 311.546C89.5747 309.169 78.228 312.746 77.4867 310.369C76.7454 307.993 159.053 282.053 158.312 279.688C157.571 277.324 141.298 282.437 140.557 280.061C139.815 277.684 97.7887 290.924 97.0474 288.547C96.3061 286.17 78.4552 291.788 77.7139 289.411C76.9726 287.035 113.822 275.415 113.069 273.038C112.316 270.662 59.6836 291.32 58.7271 289.015C58.6315 288.787 122.072 283.025 121.977 283.253C121.008 285.546 76.2791 268.741 75.5378 271.118C74.7965 273.495 58.1652 268.225 57.4119 270.602C56.6587 272.978 95.1344 285.174 94.3931 287.551C93.6518 289.927 94.1061 290.071 93.3529 292.448C92.5996 294.825 76.3389 289.663 75.5976 292.04C74.8563 294.417 84.6128 297.514 83.8595 299.89C83.1062 302.267 138.225 319.744 137.484 322.121C136.743 324.497 49.6283 268.045 47.787 269.726C24.8666 290.72 37.7556 350.677 39.3578 352.585L39.3458 352.597Z" fill="black"/>
<path d="M121.48 654.249C106.795 624.682 92.1214 554.301 77.4361 524.902C73.7888 525.788 69.9015 527.943 65.7622 532.638C55.5041 526.494 45.2581 546.505 35 616.526C46.9858 539.931 57.5438 504.699 66.6621 485.825C75.7804 467.311 83.471 465.144 89.7218 463C96.2846 481.826 102.847 507.944 109.41 526.674C115.661 564.804 123.328 602.838 132.422 624.574C141.516 645.962 152.05 651.04 164 615.053C153.742 685.074 143.496 705.097 133.238 698.954C129.063 686.212 125.151 670.871 121.468 654.249H121.48ZM85.0547 524.71C94.6889 550.972 104.311 590.264 113.945 616.526C108.558 587.294 103.831 556.9 99.764 528.83C99.608 528.315 99.464 527.8 99.308 527.285C95.2168 527.608 90.4657 525.56 85.0547 524.698V524.71Z" fill="black"/>
<path d="M95.3165 142.358C90.1443 138.419 101.785 128.117 95.2927 128.117C88.8007 128.117 88.7888 103.933 82.2968 103.933C75.8049 103.933 58.8377 100.627 53.6655 104.578C48.4933 108.529 88.2895 138.299 86.2681 144.817C84.2468 151.334 47.2449 122.173 41.8824 126.363C36.9124 130.254 54.9021 126.685 48.6003 126.685C42.2986 126.685 36.9124 158.091 33.6545 152.683C30.0042 146.631 15.9858 137.01 18.2449 130.302C20.504 123.593 33.3691 127.95 35.6282 121.242C37.8873 114.533 49.5634 118.484 51.8225 111.776C54.0816 105.067 52.0484 104.387 54.2957 97.6786C56.5429 90.9701 52.9997 89.7645 55.2469 83.0561C57.4941 76.3476 34.9743 68.72 37.2334 62.0115C39.4925 55.3031 45.2473 57.2488 47.4945 50.5403C49.7417 43.8318 84.9008 55.7328 87.1599 49.0124C89.419 42.3039 73.4982 37.9828 79.0271 33.5781C83.8663 29.7226 82.7487 0 88.9315 0C95.1143 0 101.238 20.5551 106.077 24.4107C111.594 28.8034 85.091 43.3902 87.3382 50.0986C89.5855 56.8071 131.7 42.6023 133.947 49.3108C136.195 56.0193 90.9409 71.2745 93.1882 77.9829C95.4354 84.6914 119.263 76.658 121.51 83.3545C123.758 90.051 150.534 81.0388 152.769 87.7353C155.017 94.4438 151.997 95.4584 154.232 102.179C156.467 108.899 123.924 119.857 126.171 126.566C128.419 133.274 153.626 124.775 155.873 131.495C158.12 138.204 129.905 135.769 126.243 141.821C122.973 147.228 135.374 182 129.084 182C122.795 182 105.387 175.853 100.417 171.973C95.043 167.783 120.773 133.978 114.257 132.009C105.399 129.323 100.75 146.452 95.3403 142.322L95.3165 142.358ZM93.2595 94.5392C96.9454 100.269 82.0353 103.325 88.8364 103.325C95.6375 103.325 116.505 123.534 120.202 117.804C124.233 111.573 124.84 91.376 122.628 84.2856C120.416 77.1951 74.7704 91.5789 72.547 84.4765C70.3354 77.3861 121.225 60.2926 118.788 53.2858C118.704 53.047 65.615 55.315 65.5318 55.5418C63.0824 62.5606 89.0147 71.5968 86.7794 78.6872C84.5441 85.7777 97.5756 75.0107 100.822 81.6953C104.068 88.3799 89.2288 88.2844 93.2476 94.5392H93.2595Z" fill="black"/>
</svg>
