<svg width="404" height="250" viewBox="0 0 404 250" fill="none" xmlns="http://www.w3.org/2000/svg">
<path d="M226.018 184.699C273.936 259.947 267.091 348.876 253.4 430.965C267.091 417.283 280.782 410.442 287.627 396.761C301.318 348.876 315.009 300.991 301.318 253.106C294.473 198.381 260.245 157.336 232.864 109.451L68.5727 27.3628C0.118195 34.2035 -61.4909 47.885 -129.945 54.7257C-184.709 102.611 -239.473 150.496 -280.545 205.221C-390.073 355.717 -355.845 547.257 -239.473 690.911C-273.7 608.823 -314.773 526.734 -349 444.646C-335.309 362.558 -321.618 287.31 -307.927 205.221L-143.636 41.0442L61.7273 0C116.491 27.3628 178.1 47.885 226.018 88.9292C273.936 123.133 308.164 171.018 321.855 225.743C335.545 273.628 335.545 328.354 321.855 376.239C301.318 458.327 253.4 519.894 150.718 547.257C48.0364 574.619 -47.8 513.053 -95.7182 424.124C-129.945 519.894 -27.2636 581.46 48.0364 615.664C130.182 643.027 219.173 629.345 301.318 567.779C342.391 526.734 369.773 478.85 404 437.805C390.309 485.69 362.927 519.894 335.545 560.938H342.391C280.782 588.301 226.018 622.504 164.409 649.867C102.8 643.027 41.1909 643.027 -13.5727 622.504C-61.4909 601.982 -102.564 567.779 -129.945 526.734C-157.327 485.69 -171.018 437.805 -177.864 389.92C-177.864 314.673 -157.327 246.265 -75.1818 191.54C-6.72726 143.655 75.4182 164.177 150.718 177.858C89.1091 82.0885 -54.6454 82.0885 -150.482 150.496C-184.709 177.858 -212.091 218.903 -232.627 253.106C-287.391 348.876 -273.7 458.327 -218.936 581.46C-171.018 629.345 -123.1 670.389 -75.1818 718.274C-6.72726 731.956 68.5727 752.478 137.027 766.159C212.327 738.796 294.473 718.274 369.773 690.911C315.009 718.274 267.091 745.637 205.482 759.319C102.8 786.681 0.118195 773 -102.564 718.274C-177.864 670.389 -246.318 608.823 -266.855 519.894C-287.391 451.487 -280.545 383.08 -280.545 314.673C-246.318 259.947 -218.936 205.221 -184.709 150.496C-129.945 123.133 -82.0273 95.7699 -27.2636 82.0885C61.7273 61.5664 150.718 88.9292 226.018 184.699ZM-27.2636 410.442C-27.2636 403.602 -20.4182 396.761 -20.4182 389.92C20.6545 417.283 54.8818 458.327 123.336 444.646C102.8 437.805 68.5727 444.646 61.7273 410.442C61.7273 396.761 82.2636 389.92 102.8 383.08C137.027 369.398 150.718 335.195 137.027 280.469C123.336 225.743 75.4182 205.221 -6.72726 205.221C34.3455 205.221 75.4182 212.062 102.8 253.106C109.645 266.788 123.336 287.31 95.9546 294.15C75.4182 300.991 48.0364 287.31 20.6545 294.15C-20.4182 307.832 -34.1091 348.876 -27.2636 410.442Z" fill="#161616"/>
</svg>
