<svg width="138" height="182" viewBox="0 0 138 182" fill="none" xmlns="http://www.w3.org/2000/svg">
<path d="M77.3165 142.358C72.1443 138.419 83.7847 128.117 77.2927 128.117C70.8007 128.117 70.7888 103.933 64.2968 103.933C57.8049 103.933 40.8377 100.627 35.6655 104.578C30.4933 108.529 70.2895 138.299 68.2681 144.817C66.2468 151.334 29.2449 122.173 23.8824 126.363C18.9124 130.254 36.9021 126.685 30.6003 126.685C24.2986 126.685 18.9124 158.091 15.6545 152.683C12.0042 146.631 -2.0142 137.01 0.244915 130.302C2.50403 123.593 15.3691 127.95 17.6282 121.242C19.8873 114.533 31.5634 118.484 33.8225 111.776C36.0816 105.067 34.0484 104.387 36.2957 97.6786C38.5429 90.9701 34.9997 89.7645 37.2469 83.0561C39.4941 76.3476 16.9743 68.72 19.2334 62.0115C21.4925 55.3031 27.2473 57.2488 29.4945 50.5403C31.7417 43.8318 66.9008 55.7328 69.1599 49.0124C71.419 42.3039 55.4982 37.9828 61.0271 33.5781C65.8663 29.7226 64.7487 0 70.9315 0C77.1144 0 83.2378 20.5551 88.077 24.4107C93.594 28.8034 67.091 43.3902 69.3382 50.0986C71.5855 56.8071 113.7 42.6023 115.947 49.3108C118.195 56.0193 72.9409 71.2745 75.1882 77.9829C77.4354 84.6914 101.263 76.658 103.51 83.3545C105.758 90.051 132.534 81.0388 134.769 87.7353C137.017 94.4438 133.997 95.4584 136.232 102.179C138.467 108.899 105.924 119.857 108.171 126.566C110.419 133.274 135.626 124.775 137.873 131.496C140.12 138.204 111.905 135.769 108.243 141.821C104.973 147.228 117.374 182 111.084 182C104.795 182 87.3874 175.853 82.4173 171.973C77.043 167.783 102.773 133.978 96.2574 132.009C87.3993 129.323 82.7503 146.452 77.3403 142.322L77.3165 142.358ZM75.2595 94.5392C78.9454 100.269 64.0353 103.325 70.8364 103.325C77.6375 103.325 98.5047 123.534 102.202 117.804C106.233 111.573 106.84 91.376 104.628 84.2856C102.416 77.1951 56.7704 91.5789 54.547 84.4765C52.3354 77.3861 103.225 60.2926 100.788 53.2858C100.704 53.047 47.615 55.315 47.5318 55.5418C45.0824 62.5606 71.0147 71.5968 68.7794 78.6872C66.5441 85.7777 79.5756 75.0107 82.8216 81.6953C86.0676 88.3799 71.2288 88.2844 75.2476 94.5392H75.2595Z" fill="black"/>
</svg>
