<svg width="129" height="237" viewBox="0 0 129 237" fill="none" xmlns="http://www.w3.org/2000/svg">
<path d="M86.4799 191.249C71.7946 161.682 57.1214 91.3014 42.4361 61.9015C38.7888 62.7877 34.9015 64.9433 30.7622 69.6377C20.5041 63.4943 10.2581 83.5054 0 153.526C11.9858 76.9308 22.5438 41.6988 31.6621 22.8254C40.7804 4.31119 48.471 2.14362 54.7218 0C61.2846 18.8255 67.8474 44.9442 74.4101 63.6739C80.661 101.804 88.3275 139.838 97.4219 161.574C106.516 182.962 117.05 188.04 129 152.053C118.742 222.074 108.496 242.097 98.2378 235.954C94.0625 223.212 90.1513 207.871 86.468 191.249H86.4799ZM50.0547 61.7099C59.6889 87.9723 69.3111 127.264 78.9453 153.526C73.5583 124.294 68.8312 93.9002 64.764 65.8295C64.608 65.3146 64.464 64.7996 64.308 64.2846C60.2168 64.608 55.4657 62.5602 50.0547 61.6979V61.7099Z" fill="black"/>
</svg>
