<svg width="132" height="135" viewBox="0 0 132 135" fill="none" xmlns="http://www.w3.org/2000/svg">
<path d="M100.8 32.2566C109.2 45.3982 108 60.9292 105.6 75.2655C108 72.8761 110.4 71.6814 111.6 69.292C114 60.9292 116.4 52.5664 114 44.2035C112.8 34.646 106.8 27.4779 102 19.115L73.2 4.77876C61.2 5.97345 50.4 8.36283 38.4 9.55752C28.8 17.9204 19.2 26.2832 12 35.8407C-7.2 62.1239 -1.2 95.5752 19.2 120.664C13.2 106.327 6 91.9911 0 77.6549C2.4 63.3186 4.8 50.177 7.2 35.8407L36 7.16814L72 0C81.6 4.77876 92.4 8.36283 100.8 15.531C109.2 21.5044 115.2 29.8673 117.6 39.4248C120 47.7876 120 57.3451 117.6 65.708C114 80.0442 105.6 90.7965 87.6 95.5752C69.6 100.354 52.8 89.6018 44.4 74.0708C38.4 90.7965 56.4 101.549 69.6 107.522C84 112.301 99.6 109.912 114 99.1593C121.2 91.9911 126 83.6283 132 76.4602C129.6 84.823 124.8 90.7965 120 97.9646H121.2C110.4 102.743 100.8 108.717 90 113.496C79.2 112.301 68.4 112.301 58.8 108.717C50.4 105.133 43.2 99.1593 38.4 91.9911C33.6 84.823 31.2 76.4602 30 68.0973C30 54.9558 33.6 43.0089 48 33.4513C60 25.0885 74.4 28.6726 87.6 31.0619C76.8 14.3363 51.6 14.3363 34.8 26.2832C28.8 31.0619 24 38.2301 20.4 44.2035C10.8 60.9292 13.2 80.0442 22.8 101.549C31.2 109.912 39.6 117.08 48 125.442C60 127.832 73.2 131.416 85.2 133.805C98.4 129.027 112.8 125.442 126 120.664C116.4 125.442 108 130.221 97.2 132.611C79.2 137.389 61.2 135 43.2 125.442C30 117.08 18 106.327 14.4 90.7965C10.8 78.8496 12 66.9027 12 54.9558C18 45.3982 22.8 35.8407 28.8 26.2832C38.4 21.5044 46.8 16.7257 56.4 14.3363C72 10.7522 87.6 15.531 100.8 32.2566ZM56.4 71.6814C56.4 70.4867 57.6 69.292 57.6 68.0973C64.8 72.8761 70.8 80.0442 82.8 77.6549C79.2 76.4602 73.2 77.6549 72 71.6814C72 69.292 75.6 68.0973 79.2 66.9027C85.2 64.5133 87.6 58.5398 85.2 48.9823C82.8 39.4248 74.4 35.8407 60 35.8407C67.2 35.8407 74.4 37.0354 79.2 44.2035C80.4 46.5929 82.8 50.177 78 51.3717C74.4 52.5664 69.6 50.177 64.8 51.3717C57.6 53.7611 55.2 60.9292 56.4 71.6814Z" fill="black"/>
</svg>
