<svg width="165" height="194" viewBox="0 0 165 194" fill="none" xmlns="http://www.w3.org/2000/svg">
<path d="M152.716 80.3752C150.803 78.8388 114.336 83.232 111.885 83.232C109.434 83.232 109.434 96.3998 106.983 96.3998C104.532 96.3998 104.532 123.54 102.081 123.54C99.63 123.54 99.63 117.286 97.1789 117.286C94.7279 117.286 94.7278 141.821 92.2768 141.821C89.8257 141.821 89.8258 115.281 87.3747 115.281C84.9236 115.281 84.9236 144.114 82.4726 144.114C80.0215 144.114 98.3985 147.871 96.4855 149.407C94.3572 151.112 23.3601 111.488 22.5471 114.105C21.734 116.722 38.0067 121.823 37.1937 124.44C36.3806 127.057 78.4313 140.236 77.6183 142.853C76.8052 145.47 94.6561 151.064 93.8431 153.692C93.0301 156.321 62.5173 138.424 60.3532 140.116C58.3565 141.677 66.8934 194 64.3586 194C61.8238 194 61.8238 178.972 59.301 178.972C56.7782 178.972 56.7663 130.742 54.2315 130.742C51.6968 130.742 51.6967 113.241 49.162 113.241C46.6272 113.241 43.9729 155.001 42.5023 152.924C41.0317 150.848 42.6099 148.579 43.4229 146.154C44.236 143.729 60.401 149.203 61.2141 146.766C62.0271 144.33 52.3305 141.053 53.1435 138.628C53.9565 136.203 -0.815765 117.658 0.00922728 115.233C0.834219 112.809 103.827 147.679 104.64 145.242C105.453 142.805 85.7486 136.143 86.5616 133.719C87.3747 131.294 94.3692 133.659 95.1941 131.234C96.0191 128.809 103.121 131.21 103.946 128.785C104.771 126.36 77.2835 117.058 78.1085 114.621C78.9335 112.184 80.0813 112.581 80.8943 110.156C81.7073 107.731 25.9068 88.8376 26.7198 86.4009C27.5329 83.9642 50.9555 91.8985 51.7685 89.4738C52.5815 87.0491 58.7152 89.1257 59.5282 86.689C60.3412 84.2523 60.1978 84.2163 61.0108 81.7796C61.8238 79.3429 57.3761 77.8425 58.1891 75.4178C59.0021 72.9931 54.7696 71.5526 55.5826 69.1279C56.3956 66.7032 93.2094 79.1628 94.0224 76.7381C94.8355 74.3134 116.369 81.5995 117.182 79.1628C117.995 76.7261 106.027 72.681 106.84 70.2563C107.653 67.8316 114.934 70.2923 115.747 67.8556C116.56 65.4189 102.703 60.7375 103.528 58.3128C104.353 55.8881 126.042 63.2342 126.855 60.7975C127.668 58.3608 33.1763 26.3836 33.9893 23.9469C34.8023 21.5102 42.3588 24.067 43.1719 21.6302C43.9849 19.1935 75.1074 21.3182 77.1639 19.8057C79.2204 18.2933 87.3508 86.593 89.8377 86.593C92.3246 86.593 92.3246 11.2953 94.7996 11.2953C97.2746 11.2953 97.2865 0.696203 99.7735 0.696203C102.26 0.696203 102.26 0 104.747 0C107.234 0 79.3041 67.7716 81.3128 69.236C83.3215 70.7004 113.045 31.9052 113.858 34.3299C114.671 36.7546 88.8573 45.4571 89.6703 47.8818C90.4833 50.3065 89.7779 50.5466 90.591 52.9713C91.404 55.396 78.503 59.7533 79.316 62.178C80.1291 64.6027 120.769 50.9067 121.582 53.3314C122.395 55.7561 63.9999 75.4538 64.813 77.8785C65.626 80.3032 127.728 59.3691 128.541 61.7938C129.354 64.2185 147.228 58.1928 148.041 60.6175C148.855 63.0422 130.442 69.248 131.255 71.6847C132.068 74.1214 110.63 81.3355 111.443 83.7722C112.256 86.2089 160.99 69.7641 161.803 72.2008C162.616 74.6375 154.163 77.4704 154.976 79.8951C155.789 82.3198 94.4648 103.002 95.2779 105.426C96.0909 107.851 131.267 95.9917 132.08 98.4164C132.893 100.841 95.9713 113.301 96.7844 115.725C97.5974 118.15 110.63 113.757 111.443 116.182C112.256 118.606 144.682 107.683 145.495 110.108C146.308 112.532 164.171 106.519 164.984 108.943C165.797 111.368 135.93 121.439 136.743 123.876C137.556 126.312 128.062 129.505 128.875 131.93C129.688 134.355 114.958 139.324 115.771 141.749C116.584 144.174 163.166 128.473 163.979 130.898C164.792 133.322 147.468 139.168 148.281 141.593C149.094 144.018 156.435 141.545 157.248 143.982C158.061 146.418 152.92 150.415 151.449 152.504C149.978 154.593 147.814 156.669 145.292 156.669C142.769 156.669 142.757 112.268 140.222 112.268C137.687 112.268 137.687 176.751 135.152 176.751C132.618 176.751 132.618 165.324 130.083 165.324C127.548 165.324 113.643 170.557 111.646 168.997C109.482 167.316 146.272 142.097 145.447 139.48C144.622 136.864 110.319 147.727 109.506 145.11C108.693 142.493 120.578 138.724 119.753 136.107C118.928 133.491 75.7889 106.351 77.2835 104.034C93.867 78.2866 154.869 82.0077 152.728 80.2912L152.716 80.3752ZM39.3458 143.597C41.0914 145.698 86.2866 148.867 89.0127 148.867C91.7388 148.867 91.7388 135.699 94.4768 135.699C97.2148 135.699 97.2148 108.559 99.9408 108.559C102.667 108.559 102.679 114.813 105.417 114.813C108.155 114.813 96.7604 98.1523 98.518 96.0517C100.12 94.1432 119.944 101.045 119.203 98.6685C118.461 96.2918 91.0572 104.922 90.316 102.546C89.5747 100.169 78.228 103.746 77.4867 101.369C76.7454 98.9926 159.053 73.0531 158.312 70.6884C157.571 68.3237 141.298 73.4372 140.557 71.0605C139.815 68.6838 97.7887 81.9237 97.0474 79.547C96.3061 77.1703 78.4552 82.7879 77.7139 80.4112C76.9726 78.0345 113.822 66.4152 113.069 64.0385C112.316 61.6618 59.6836 82.3198 58.7271 80.0151C58.6315 79.787 122.072 74.0254 121.977 74.2534C121.008 76.5461 76.2791 59.7412 75.5378 62.1179C74.7965 64.4946 58.1652 59.2251 57.4119 61.6018C56.6587 63.9785 95.1344 76.174 94.3931 78.5507C93.6518 80.9274 94.1061 81.0714 93.3529 83.4481C92.5996 85.8248 76.3389 80.6633 75.5976 83.04C74.8563 85.4166 84.6128 88.5136 83.8595 90.8902C83.1062 93.2669 138.225 110.744 137.484 113.121C136.743 115.497 49.6283 59.045 47.787 60.7255C24.8666 81.7196 37.7556 141.677 39.3578 143.585L39.3458 143.597Z" fill="black"/>
</svg>
