<svg width="120" height="148" viewBox="0 0 120 148" fill="none" xmlns="http://www.w3.org/2000/svg">
<path d="M66.8019 120.147C61.0523 116.987 66.6098 95.3463 60.056 95.3463C53.5022 95.3463 53.4902 121.781 46.9364 121.781C40.3826 121.781 33.1926 93.8203 27.443 96.9804C23.4339 99.1914 45.0518 116.867 43.6955 121.229C42.3391 125.59 17.1201 117.72 15.7637 122.094C14.4074 126.467 37.3698 142.377 33.7568 145.2C30.4198 147.808 21.4054 121.553 17.1682 121.553C12.931 121.553 12.931 147.988 8.68183 147.988C4.43266 147.988 12.7629 140.658 13.3031 136.441C16.0038 115.233 -5.48206 110.282 1.34782 90.0232C8.17771 69.7644 33.1926 78.2116 40.0225 57.9528C46.8523 37.6939 19.3648 25.702 29.5556 6.90915C31.5362 3.25631 45.3159 26.435 49.4691 26.435C53.6222 26.435 53.6222 0 57.7874 0C61.9525 0 52.5059 15.849 54.4864 19.5139C64.6532 38.3067 85.407 29.2708 92.2128 49.5296C99.0187 69.7884 73.9799 78.2116 80.7737 98.4704C87.5676 118.729 117.3 111.916 119.989 133.124C120.517 137.33 102.656 121.565 98.4186 121.565C94.1814 121.565 94.1814 148 89.9323 148C85.6831 148 92.8971 126.948 89.5481 124.341C85.9352 121.529 67.474 134.386 66.1056 130.024C64.7373 125.662 85.6951 107.29 81.554 105.344C76.9447 103.181 70.835 122.358 66.8259 120.147H66.8019ZM52.3619 85.3611C53.7783 89.7108 44.3797 102.664 48.9409 102.664C53.5022 102.664 53.5142 76.229 58.0874 76.229C62.6607 76.229 78.361 97.9177 79.7774 93.5679C82.1061 86.4665 52.3979 86.2743 50.1653 79.1368C47.9327 71.9994 73.1276 64.0809 70.883 56.9434C68.6384 49.806 43.5635 57.8206 41.2468 50.7072C41.2228 50.6351 53.7183 33.4042 53.6463 33.4042C53.5622 33.4042 53.5622 59.8393 53.4782 59.8393C53.3942 59.8393 40.7907 42.4282 40.7667 42.5003C38.438 49.6137 63.657 57.7365 61.4004 64.8619C59.1437 71.9874 30.5999 68.6349 31.1401 76.0968C31.6082 82.7176 50.0453 78.2356 52.3619 85.3491V85.3611Z" fill="black"/>
</svg>
