<?xml version="1.0" encoding="UTF-8"?>
<svg id="Camada_2" data-name="Camada 2" xmlns="http://www.w3.org/2000/svg" viewBox="0 0 137.98 161.59">
  <defs>
    <style>
      .cls-1 {
        fill: #fff;
        stroke-width: 0px;
      }
    </style>
  </defs>
  <g id="Camada_1-2" data-name="Camada 1">
    <path class="cls-1" d="M127.72,66.94c-1.6-1.28-32.1,2.38-34.15,2.38s-2.05,10.97-4.1,10.97-2.05,22.61-4.1,22.61-2.05-5.21-4.1-5.21-2.05,20.44-4.1,20.44-2.05-22.11-4.1-22.11-2.05,24.02-4.1,24.02,13.32,3.13,11.72,4.41c-1.78,1.42-61.16-31.59-61.84-29.41s12.93,6.43,12.25,8.61,34.49,13.16,33.81,15.34,14.25,6.84,13.57,9.03-26.2-12.72-28.01-11.31c-1.67,1.3,5.47,44.89,3.35,44.89s-2.12-12.52-4.23-12.52-2.12-40.18-4.24-40.18-2.12-14.58-4.24-14.58-4.34,34.79-5.57,33.06.09-3.62.77-5.64,14.2,2.54,14.88.51-7.43-4.76-6.75-6.78S-.67,98,0,95.98s86.83,27.03,87.51,25-15.8-7.58-15.12-9.6,6.53-.05,7.22-2.07,6.63-.02,7.32-2.04-22.3-9.77-21.61-11.8,1.65-1.7,2.33-3.72-45.99-17.76-45.31-19.79,20.27,4.58,20.95,2.56,5.81-.29,6.49-2.32.56-2.06,1.24-4.09-3.04-3.28-2.36-5.3-2.86-3.22-2.18-5.24,31.47,8.36,32.15,6.34,18.69,4.05,19.37,2.02-9.33-5.4-8.65-7.42,6.77.03,7.45-2-10.91-5.93-10.22-7.95,18.83,4.1,19.51,2.07S27.75,21.97,28.43,19.95s7,.1,7.68-1.93,26.71-.26,28.43-1.52,8.52,55.64,10.6,55.64,2.08-62.73,4.15-62.73,2.08-8.83,4.16-8.83,2.08-.58,4.16-.58-21.28,56.46-19.6,57.68,26.54-31.1,27.22-29.08-20.91,9.27-20.23,11.29.09,2.22.77,4.24-10.11,5.65-9.43,7.67,34.67-9.39,35.35-7.37-48.16,18.43-47.48,20.45,52.62-15.42,53.3-13.4,15.63-3,16.31-.98-14.72,7.19-14.04,9.22-17.25,8.04-16.57,10.07,41.44-11.67,42.12-9.64-6.39,4.39-5.71,6.41-50.61,19.25-49.93,21.27,30.1-7.86,30.78-5.84-30.2,12.4-29.52,14.42,11.58-1.64,12.26.38,27.8-7.08,28.48-5.06,15.62-2.99,16.3-.97-24.3,10.41-23.62,12.44-7.26,4.69-6.58,6.71-11.64,6.16-10.96,8.18,39.64-11.06,40.32-9.04-13.81,6.89-13.13,8.91,6.82-.04,7.5,1.99-3.62,5.36-4.85,7.1-3.04,3.47-5.15,3.47-2.12-36.99-4.24-36.99-2.12,53.72-4.24,53.72-2.12-9.52-4.24-9.52-13.75,4.36-15.42,3.06c-1.81-1.4,28.96-22.41,28.27-24.59s-29.38,6.87-30.06,4.69,9.26-5.32,8.57-7.5-36.77-24.79-35.52-26.72c13.87-21.45,64.89-18.35,63.1-19.78ZM32.91,119.6c1.46,1.75,39.26,4.39,41.54,4.39s2.28-10.97,4.57-10.97,2.29-22.61,4.57-22.61,2.29,5.21,4.58,5.21-7.24-13.88-5.77-15.63c1.34-1.59,17.92,4.16,17.3,2.18s-23.54,5.21-24.16,3.23-10.11,1-10.73-.98,68.22-23.59,67.6-25.56-14.23,2.29-14.85.31-35.77,9.05-36.39,7.07-15.55,2.7-16.17.72,30.2-11.66,29.57-13.64-44.65,15.23-45.45,13.31c-.08-.19,52.98-4.99,52.9-4.8-.81,1.91-38.22-12.09-38.84-10.11s-14.53-2.41-15.16-.43,31.55,12.14,30.93,14.12-.24,2.1-.87,4.08-14.23-2.32-14.85-.34,7.54,4.56,6.91,6.54,45.47,16.54,44.85,18.52S41.5,49.17,39.96,50.57c-19.17,17.49-8.39,67.44-7.05,69.03Z"/>
  </g>
</svg>