<?xml version="1.0" encoding="UTF-8"?>
<svg id="Camada_2" data-name="Camada 2" xmlns="http://www.w3.org/2000/svg" viewBox="0 0 671.83 675.08">
  <defs>
    <style>
      .cls-1 {
        fill: #fff;
        stroke-width: 0px;
      }
    </style>
  </defs>
  <g id="Camada_1-2" data-name="Camada 1">
    <path class="cls-1" d="M60.79,411.89H28l-6.81,21.82H0l34.11-101.16h20.77l33.98,101.16h-21.19l-6.88-21.82ZM33,395.98h22.86l-11.19-35.64h-.42l-11.26,35.64Z"/>
    <path class="cls-1" d="M631.1,46.83c7,11,6,24,4,36,2-2,4-3,5-5,2-7,4-14,2-21-1-8-6-14-10-21l-24-12c-10,1-19,3-29,4-8,7-16,14-22,22-16,22-11,50,6,71-5-12-11-24-16-36,2-12,4-23,6-35l24-24,30-6c8,4,17,7,24,13,7,5,12,12,14,20,2,7,2,15,0,22-3,12-10,21-25,25s-29-5-36-18c-5,14,10,23,21,28,12,4,25,2,37-7,6-6,10-13,15-19-2,7-6,12-10,18h1c-9,4-17,9-26,13-9-1-18-1-26-4-7-3-13-8-17-14s-6-13-7-20c0-11,3-21,15-29,10-7,22-4,33-2-9-14-30-14-44-4-5,4-9,10-12,15-8,14-6,30,2,48,7,7,14,13,21,20,10,2,21,5,31,7,11-4,23-7,34-11-8,4-15,8-24,10-15,4-30,2-45-6-11-7-21-16-24-29-3-10-2-20-2-30,5-8,9-16,14-24,8-4,15-8,23-10,13-3,26,1,37,15h0ZM594.1,79.83c0-1,1-2,1-3,6,4,11,10,21,8-3-1-8,0-9-5,0-2,3-3,6-4,5-2,7-7,5-15s-9-11-21-11c6,0,12,1,16,7,1,2,3,5-1,6-3,1-7-1-11,0-6,2-8,8-7,17h0Z"/>
    <path class="cls-1" d="M620.49,252.53c-4.79-2.63-.16-20.64-5.62-20.64s-5.47,22-10.93,22-11.45-23.27-16.24-20.64c-3.34,1.84,14.67,16.55,13.54,20.18s-22.14-2.92-23.27.72,18,16.88,14.99,19.23c-2.78,2.17-10.29-19.68-13.82-19.68s-3.53,22-7.07,22,3.4-6.1,3.85-9.61c2.25-17.65-15.65-21.77-9.96-38.63,5.69-16.86,26.53-9.83,32.22-26.69s-17.21-26.84-8.72-42.48c1.65-3.04,13.13,16.25,16.59,16.25s3.46-22,6.93-22-4.4,13.19-2.75,16.24c8.47,15.64,25.76,8.12,31.43,24.98s-15.19,23.87-9.53,40.73,30.43,11.19,32.67,28.84c.44,3.5-14.44-9.62-17.97-9.62s-3.53,22-7.07,22,2.47-17.52-.32-19.69c-3.01-2.34-18.39,8.36-19.53,4.73s16.32-18.92,12.87-20.54c-3.84-1.8-8.93,14.16-12.27,12.32ZM608.46,223.58c1.18,3.62-6.65,14.4-2.85,14.4s3.81-22,7.62-22,16.89,18.05,18.07,14.43c1.94-5.91-22.81-6.07-24.67-12.01s19.13-12.53,17.26-18.47-22.76.73-24.69-5.19c-.02-.06,10.39-14.4,10.33-14.4-.07,0-.07,22-.14,22s-10.57-14.49-10.59-14.43c-1.94,5.92,19.07,12.68,17.19,18.61s-25.66,3.14-25.21,9.35c.39,5.51,15.75,1.78,17.68,7.7Z"/>
    <path class="cls-1" d="M616.93,427.85l-7.62-34.16-7.61,34.16-29.57-10.47,25.17,30.7-21.79-32.57-28.66,15.9,52.37-42.45-16.2-65.08,26.39,26.89,26.4-26.88-16.29,65.05,52.31,42.5-28.66-15.93-21.77,32.59,14.12-42.34-18.6,22.1ZM615.22,390.34l-5.89,23.85-5.88-23.88,29.09-17.61-40.28-6.73,17.11-23.85,17.1,23.88-40.78,15.76,29.54,8.58Z"/>
    <path class="cls-1" d="M636.29,636.87c-12.24-24.69-24.47-83.46-36.71-108.01-3.04.74-6.28,2.54-9.73,6.46-8.55-5.13-17.09,11.58-25.64,70.05,9.99-63.96,18.79-93.38,26.39-109.14,7.6-15.46,14.01-17.27,19.22-19.06,5.47,15.72,10.94,37.53,16.41,53.17,5.21,31.84,11.6,63.6,19.18,81.75,7.58,17.86,16.36,22.1,26.32-7.95-8.55,58.47-17.09,75.19-25.64,70.06-3.48-10.64-6.74-23.45-9.81-37.33ZM605.93,528.7c8.03,21.93,16.05,54.74,24.08,76.67-4.49-24.41-8.43-49.79-11.82-73.23-.13-.43-.25-.86-.38-1.29-3.41.27-7.37-1.44-11.88-2.16Z"/>
    <path class="cls-1" d="M434.33,119.24c-4.35-3.3,5.44-11.93-.02-11.93s-5.47-20.26-10.93-20.26-19.73-2.77-24.08.54,29.12,28.25,27.42,33.71-32.82-18.97-37.33-15.46c-4.18,3.26,10.95.27,5.65.27s-9.83,26.31-12.57,21.78c-3.07-5.07-14.86-13.13-12.96-18.75s12.72-1.97,14.62-7.59,11.72-2.31,13.62-7.93.19-6.19,2.08-11.81-1.09-6.63.8-12.25-17.05-12.01-15.15-17.63,6.74-3.99,8.63-9.61,31.46,4.35,33.36-1.28c1.9-5.62-11.49-9.24-6.84-12.93,4.07-3.23,3.13-28.13,8.33-28.13s10.35,17.22,14.42,20.45c4.64,3.68-17.65,15.9-15.76,21.52s37.31-6.28,39.2-.66c1.89,5.62-36.17,18.4-34.28,24.02s21.93-1.11,23.82,4.5,24.41-1.94,26.29,3.67c1.89,5.62-.65,6.47,1.23,12.1s-25.49,14.81-23.6,20.43c1.89,5.62,23.09-1.5,24.98,4.13,1.89,5.62-21.84,3.58-24.92,8.65-2.75,4.53,7.68,33.66,2.39,33.66s-19.93-5.15-24.11-8.4c-4.52-3.51,17.12-31.83,11.64-33.48-7.45-2.25-11.36,12.1-15.91,8.64ZM432.6,79.18c3.1,4.8-9.44,7.36-3.72,7.36s23.27,16.93,26.38,12.13c3.39-5.22,3.9-22.14,2.04-28.08s-40.25,6.11-42.12.16c-1.86-5.94,40.94-20.26,38.89-26.13-.07-.2-44.72,1.7-44.79,1.89-2.06,5.88,19.75,13.45,17.87,19.39s9.08-3.08,11.81,2.52-9.75,5.52-6.37,10.76Z"/>
    <path class="cls-1" d="M482.16,241.07c-1.6-1.28-32.1,2.38-34.15,2.38s-2.05,10.97-4.1,10.97-2.05,22.61-4.1,22.61-2.05-5.21-4.1-5.21-2.05,20.44-4.1,20.44-2.05-22.11-4.1-22.11-2.05,24.02-4.1,24.02,13.32,3.13,11.72,4.41c-1.78,1.42-61.16-31.59-61.84-29.41s12.93,6.43,12.25,8.61,34.49,13.16,33.81,15.34,14.25,6.84,13.57,9.03-26.2-12.72-28.01-11.31c-1.67,1.3,5.47,44.89,3.35,44.89s-2.12-12.52-4.23-12.52-2.12-40.18-4.24-40.18-2.12-14.58-4.24-14.58-4.34,34.79-5.57,33.06.09-3.62.77-5.64,14.2,2.54,14.88.51-7.43-4.76-6.75-6.78-45.13-17.47-44.44-19.49,86.83,27.03,87.51,25-15.8-7.58-15.12-9.6,6.53-.05,7.22-2.07,6.63-.02,7.32-2.04-22.3-9.77-21.61-11.8,1.65-1.7,2.33-3.72-45.99-17.76-45.31-19.79,20.27,4.58,20.95,2.56,5.81-.29,6.49-2.32.56-2.06,1.24-4.09-3.04-3.28-2.36-5.3-2.86-3.22-2.18-5.24,31.47,8.36,32.15,6.34,18.69,4.05,19.37,2.02-9.33-5.4-8.65-7.42,6.77.03,7.45-2-10.91-5.93-10.22-7.95,18.83,4.1,19.51,2.07-78.35-28.67-77.67-30.7,7,.1,7.68-1.93,26.71-.26,28.43-1.52,8.52,55.64,10.6,55.64,2.08-62.73,4.15-62.73,2.08-8.83,4.16-8.83,2.08-.58,4.16-.58-21.28,56.46-19.6,57.68,26.54-31.1,27.22-29.08-20.91,9.27-20.23,11.29.09,2.22.77,4.24-10.11,5.65-9.43,7.67,34.67-9.39,35.35-7.37-48.16,18.43-47.48,20.45,52.62-15.42,53.3-13.4,15.63-3,16.31-.98-14.72,7.19-14.04,9.22-17.25,8.04-16.57,10.07,41.44-11.67,42.12-9.64-6.39,4.39-5.71,6.41-50.61,19.25-49.93,21.27,30.1-7.86,30.78-5.84-30.2,12.4-29.52,14.42,11.58-1.64,12.26.38,27.8-7.08,28.48-5.06,15.62-2.99,16.3-.97-24.3,10.41-23.62,12.44-7.26,4.69-6.58,6.71-11.64,6.16-10.96,8.18,39.64-11.06,40.32-9.04-13.81,6.89-13.13,8.91,6.82-.04,7.5,1.99-3.62,5.36-4.85,7.1-3.04,3.47-5.15,3.47-2.12-36.99-4.24-36.99-2.12,53.72-4.24,53.72-2.12-9.52-4.24-9.52-13.75,4.36-15.42,3.06c-1.81-1.4,28.96-22.41,28.27-24.59s-29.38,6.87-30.06,4.69,9.26-5.32,8.57-7.5-36.77-24.79-35.52-26.72c13.87-21.45,64.89-18.35,63.1-19.78ZM387.34,293.74c1.46,1.75,39.26,4.39,41.54,4.39s2.28-10.97,4.57-10.97,2.29-22.61,4.57-22.61,2.29,5.21,4.58,5.21-7.24-13.88-5.77-15.63c1.34-1.59,17.92,4.16,17.3,2.18s-23.54,5.21-24.16,3.23-10.11,1-10.73-.98,68.22-23.59,67.6-25.56-14.23,2.29-14.85.31-35.77,9.05-36.39,7.07-15.55,2.7-16.17.72,30.2-11.66,29.57-13.64-44.65,15.23-45.45,13.31c-.08-.19,52.98-4.99,52.9-4.8-.81,1.91-38.22-12.09-38.84-10.11s-14.53-2.41-15.16-.43,31.55,12.14,30.93,14.12-.24,2.1-.87,4.08-14.23-2.32-14.85-.34,7.54,4.56,6.91,6.54,45.47,16.54,44.85,18.52-73.48-45.05-75.02-43.65c-19.17,17.49-8.39,67.44-7.05,69.03Z"/>
    <path class="cls-1" d="M432.1,435.83c-11-3-21-8-32-10-1,8-4,16-4,25-5,0-11,1-16,3-2-26,9-51,28-71,7-9,12-19,13-31,7,0,13,1,20,3,14,21,6,46,10,70,1,6,3,11,6,16,2,2,4,4,5,7,2,3,4,4,7,6-9,1-18,2-27,2-3-7-9-12-10-20h0ZM409.1,409.83c7,3,13,7,20,10,2-13,5-25,4-38-2,2-3,5-5,8-6,7-14,12-19,20h0Z"/>
  </g>
</svg>