<?xml version="1.0" encoding="UTF-8"?>
<svg id="Camada_2" data-name="Camada 2" xmlns="http://www.w3.org/2000/svg" viewBox="0 0 99.96 123.16">
  <defs>
    <style>
      .cls-1 {
        fill: #fff;
        stroke-width: 0px;
      }
    </style>
  </defs>
  <g id="Camada_1-2" data-name="Camada 1">
    <path class="cls-1" d="M55.67,99.98c-4.79-2.63-.16-20.64-5.62-20.64s-5.47,22-10.93,22-11.45-23.27-16.24-20.64c-3.34,1.84,14.67,16.55,13.54,20.18s-22.14-2.92-23.27.72,18,16.88,14.99,19.23c-2.78,2.17-10.29-19.68-13.82-19.68s-3.53,22-7.07,22,3.4-6.1,3.85-9.61c2.25-17.65-15.65-21.77-9.96-38.63,5.69-16.86,26.53-9.83,32.22-26.69S16.13,21.4,24.62,5.75c1.65-3.04,13.13,16.25,16.59,16.25S44.67,0,48.14,0s-4.4,13.19-2.75,16.24c8.47,15.64,25.76,8.12,31.43,24.98s-15.19,23.87-9.53,40.73,30.43,11.19,32.67,28.84c.44,3.5-14.44-9.62-17.97-9.62s-3.53,22-7.07,22,2.47-17.52-.32-19.69c-3.01-2.34-18.39,8.36-19.53,4.73s16.32-18.92,12.87-20.54c-3.84-1.8-8.93,14.16-12.27,12.32ZM43.64,71.03c1.18,3.62-6.65,14.4-2.85,14.4s3.81-22,7.62-22,16.89,18.05,18.07,14.43c1.94-5.91-22.81-6.07-24.67-12.01s19.13-12.53,17.26-18.47-22.76.73-24.69-5.19c-.02-.06,10.39-14.4,10.33-14.4-.07,0-.07,22-.14,22s-10.57-14.49-10.59-14.43c-1.94,5.92,19.07,12.68,17.19,18.61s-25.66,3.14-25.21,9.35c.39,5.51,15.75,1.78,17.68,7.7Z"/>
  </g>
</svg>