<?xml version="1.0" encoding="UTF-8"?>
<svg id="Camada_2" data-name="Camada 2" xmlns="http://www.w3.org/2000/svg" viewBox="0 0 89.23 104">
  <defs>
    <style>
      .cls-1 {
        fill: #fff;
        stroke-width: 0px;
      }
    </style>
  </defs>
  <g id="Camada_1-2" data-name="Camada 1">
    <path class="cls-1" d="M52.23,84c-11-3-21-8-32-10-1,8-4,16-4,25-5,0-11,1-16,3C-1.77,76,9.23,51,28.23,31c7-9,12-19,13-31,7,0,13,1,20,3,14,21,6,46,10,70,1,6,3,11,6,16,2,2,4,4,5,7,2,3,4,4,7,6-9,1-18,2-27,2-3-7-9-12-10-20h0ZM29.23,58c7,3,13,7,20,10,2-13,5-25,4-38-2,2-3,5-5,8-6,7-14,12-19,20h0Z"/>
  </g>
</svg>