<?xml version="1.0" encoding="UTF-8"?>
<svg id="Camada_2" data-name="Camada 2" xmlns="http://www.w3.org/2000/svg" viewBox="0 0 110 113">
  <defs>
    <style>
      .cls-1 {
        fill: #fff;
        stroke-width: 0px;
      }
    </style>
  </defs>
  <g id="Camada_1-2" data-name="Camada 1">
    <path class="cls-1" d="M84,27c7,11,6,24,4,36,2-2,4-3,5-5,2-7,4-14,2-21-1-8-6-14-10-21l-24-12c-10,1-19,3-29,4-8,7-16,14-22,22C-6,52-1,80,16,101c-5-12-11-24-16-36,2-12,4-23,6-35L30,6,60,0c8,4,17,7,24,13,7,5,12,12,14,20,2,7,2,15,0,22-3,12-10,21-25,25s-29-5-36-18c-5,14,10,23,21,28,12,4,25,2,37-7,6-6,10-13,15-19-2,7-6,12-10,18h1c-9,4-17,9-26,13-9-1-18-1-26-4-7-3-13-8-17-14s-6-13-7-20c0-11,3-21,15-29,10-7,22-4,33-2-9-14-30-14-44-4-5,4-9,10-12,15-8,14-6,30,2,48,7,7,14,13,21,20,10,2,21,5,31,7,11-4,23-7,34-11-8,4-15,8-24,10-15,4-30,2-45-6-11-7-21-16-24-29-3-10-2-20-2-30,5-8,9-16,14-24,8-4,15-8,23-10,13-3,26,1,37,15h0ZM47,60c0-1,1-2,1-3,6,4,11,10,21,8-3-1-8,0-9-5,0-2,3-3,6-4,5-2,7-7,5-15s-9-11-21-11c6,0,12,1,16,7,1,2,3,5-1,6-3,1-7-1-11,0-6,2-8,8-7,17h0Z"/>
  </g>
</svg>