<?xml version="1.0" encoding="UTF-8"?>
<svg id="Camada_2" data-name="Camada 2" xmlns="http://www.w3.org/2000/svg" viewBox="0 0 116.05 152.48">
  <defs>
    <style>
      .cls-1 {
        fill: #fff;
        stroke-width: 0px;
      }
    </style>
  </defs>
  <g id="Camada_1-2" data-name="Camada 1">
    <path class="cls-1" d="M65.03,119.24c-4.35-3.3,5.44-11.93-.02-11.93s-5.47-20.26-10.93-20.26-19.73-2.77-24.08.54,29.12,28.25,27.42,33.71-32.82-18.97-37.33-15.46c-4.18,3.26,10.95.27,5.65.27s-9.83,26.31-12.57,21.78c-3.07-5.07-14.86-13.13-12.96-18.75s12.72-1.97,14.62-7.59,11.72-2.31,13.62-7.93.19-6.19,2.08-11.81-1.09-6.63.8-12.25-17.05-12.01-15.15-17.63,6.74-3.99,8.63-9.61,31.46,4.35,33.36-1.28c1.9-5.62-11.49-9.24-6.84-12.93,4.07-3.23,3.13-28.13,8.33-28.13s10.35,17.22,14.42,20.45c4.64,3.68-17.65,15.9-15.76,21.52s37.31-6.28,39.2-.66c1.89,5.62-36.17,18.4-34.28,24.02s21.93-1.11,23.82,4.5,24.41-1.94,26.29,3.67c1.89,5.62-.65,6.47,1.23,12.1s-25.49,14.81-23.6,20.43c1.89,5.62,23.09-1.5,24.98,4.13,1.89,5.62-21.84,3.58-24.92,8.65-2.75,4.53,7.68,33.66,2.39,33.66s-19.93-5.15-24.11-8.4c-4.52-3.51,17.12-31.83,11.64-33.48-7.45-2.25-11.36,12.1-15.91,8.64ZM63.3,79.18c3.1,4.8-9.44,7.36-3.72,7.36s23.27,16.93,26.38,12.13c3.39-5.22,3.9-22.14,2.04-28.08s-40.25,6.11-42.12.16c-1.86-5.94,40.94-20.26,38.89-26.13-.07-.2-44.72,1.7-44.79,1.89-2.06,5.88,19.75,13.45,17.87,19.39s9.08-3.08,11.81,2.52-9.75,5.52-6.37,10.76Z"/>
  </g>
</svg>