<?xml version="1.0" encoding="UTF-8"?>
<svg id="Camada_2" data-name="Camada 2" xmlns="http://www.w3.org/2000/svg" viewBox="0 0 107.52 197.91">
  <defs>
    <style>
      .cls-1 {
        fill: #fff;
        stroke-width: 0px;
      }
    </style>
  </defs>
  <g id="Camada_1-2" data-name="Camada 1">
    <path class="cls-1" d="M72.08,159.7c-12.24-24.69-24.47-83.46-36.71-108.01-3.04.74-6.28,2.54-9.73,6.46-8.55-5.13-17.09,11.58-25.64,70.05C9.99,64.24,18.79,34.82,26.39,19.06,33.99,3.6,40.4,1.79,45.61,0c5.47,15.72,10.94,37.53,16.41,53.17,5.21,31.84,11.6,63.6,19.18,81.75,7.58,17.86,16.36,22.1,26.32-7.95-8.55,58.47-17.09,75.19-25.64,70.06-3.48-10.64-6.74-23.45-9.81-37.33ZM41.72,51.53c8.03,21.93,16.05,54.74,24.08,76.67-4.49-24.41-8.43-49.79-11.82-73.23-.13-.43-.25-.86-.38-1.29-3.41.27-7.37-1.44-11.88-2.16Z"/>
  </g>
</svg>